# xmcd
#
# Track frame offsets: 
#        150
#        10077
#        20421
#        30602
#        40502
#        50776
#        63644
#        73033
#        82340
#        91393
#        105310
#        113983
#        125808
#        135199
#
# Disc length: 1951 seconds
#
# Revision: 0
# Processed by: cddbd v1.5.2PL0 Copyright (c) Steve Scherf et al.
# Submitted via: ExactAudioCopy v1.3
#
DISCID=bb079d0e
DTITLE=Mickey Gilley - Down The Line
DYEAR=1967
DGENRE=Rock and Roll, Country
TTITLE0=Lonely Wine
TTITLE1=Down The Line
TTITLE2=Forgive
TTITLE3=My Babe
TTITLE4=I'm To Blame
TTITLE5=Turn Around
TTITLE6=I'm Gonna Put My Love In The Wants Ads
TTITLE7=Night After Night
TTITLE8=Suzie Q.
TTITLE9=I'll Make It All Up To You
TTITLE10=Is It Wrong
TTITLE11=Breathless
TTITLE12=Lotta Lovin'
TTITLE13=World Of My Own
EXTD=
EXTT0=
EXTT1=
EXTT2=
EXTT3=
EXTT4=
EXTT5=
EXTT6=
EXTT7=
EXTT8=
EXTT9=
EXTT10=
EXTT11=
EXTT12=
EXTT13=
PLAYORDER=
